<svg xmlns="http://www.w3.org/2000/svg" version="1.1" xmlns:xlink="http://www.w3.org/1999/xlink"
  xmlns:svgjs="http://svgjs.dev/svgjs" width="1500" height="1500" viewBox="150 150 1200 1200">
  <g transform="matrix(0.6666666666666666,0,0,0.6666666666666666,250,246.548090717324)"><svg viewBox="0 0 280 281"
      data-background-color="#61777f" preserveAspectRatio="xMidYMid meet" height="1505" width="1500"
      xmlns="http://www.w3.org/2000/svg" xmlns:xlink="http://www.w3.org/1999/xlink">
      <g id="tight-bounds" transform="matrix(1,0,0,1,0,0.5000045177542063)"><svg viewBox="0 0 280 280" height="280"
          width="280">
          <g><svg viewBox="0 0 280 280" height="280" width="280">
              <g><svg viewBox="0 0 280 280" height="280" width="280">
                  <g id="textblocktransform"><svg viewBox="0 0 280 280" height="280" width="280" id="textblock">
                      <g><svg viewBox="0 0 280 280" height="280" width="280">
                          <g transform="matrix(1,0,0,1,90.50252531694167,90.5256656209868)"><svg
                              viewBox="0 0 98.99494936611666 98.9486687580264" height="98.9486687580264"
                              width="98.99494936611666">
                              <g id="icon-0"><svg xmlns="http://www.w3.org/2000/svg"
                                  xmlns:xlink="http://www.w3.org/1999/xlink" version="1.1" x="0" y="0"
                                  viewBox="0.7607695154586737 0.7749999999999999 30.439230484541326 30.425"
                                  enable-background="new 0 0 32 32" xml:space="preserve" height="98.9486687580264"
                                  width="98.99494936611666" class="icon-jxe-0" data-fill-palette-color="accent"
                                  id="jxe-0">
                                  <g fill="#ffffff" data-fill-palette-color="accent">
                                    <g fill="#ffffff" data-fill-palette-color="accent">
                                      <path fill="#000000"
                                        d="M1.5 31.2C1.3 31.2 1.1 31.1 1 31 0.8 30.8 0.7 30.6 0.8 30.3L4.5 11.2C4.6 10.9 4.8 10.6 5.1 10.6L14.7 9.3C14.9 9.3 15.2 9.3 15.3 9.5L22.5 16.7C22.7 16.9 22.7 17.1 22.7 17.3L21.4 26.9C21.4 27.2 21.1 27.5 20.8 27.5L1.6 31.2zM5.8 12.1L2.4 29.6 19.9 26.2 21.1 17.5 14.4 10.8z"
                                        data-fill-palette-color="accent"></path>
                                    </g>
                                    <g fill="#ffffff" data-fill-palette-color="accent">
                                      <rect x="5.2" y="19.8"
                                        transform="matrix(-0.7071 -0.7071 0.7071 -0.7071 -8.3465 48.7211)"
                                        fill="#000000" width="1.5" height="12.6" data-fill-palette-color="accent">
                                      </rect>
                                    </g>
                                    <g fill="#ffffff" data-fill-palette-color="accent">
                                      <path fill="#000000"
                                        d="M12 23.1C11.2 23.1 10.4 22.8 9.8 22.2S8.9 20.9 8.9 20C8.9 19.2 9.2 18.4 9.8 17.8 11 16.6 13 16.6 14.1 17.8 15.3 19 15.3 20.9 14.1 22.1 13.6 22.8 12.8 23.1 12 23.1M12 18.4C11.6 18.4 11.2 18.6 10.9 18.9S10.4 19.6 10.4 20 10.6 20.8 10.9 21.1C11.5 21.7 12.5 21.7 13.1 21.1S13.7 19.5 13.1 18.9C12.8 18.6 12.4 18.4 12 18.4"
                                        data-fill-palette-color="accent"></path>
                                    </g>
                                    <g fill="#ffffff" data-fill-palette-color="accent">
                                      <path fill="#000000"
                                        d="M23.8 18.7C22.9 18.7 22 18.3 21.4 17.7L14.3 10.6C13 9.3 13 7.1 14.3 5.8L19.1 1C19.4 0.7 19.9 0.7 20.2 1L31 11.8C31.1 11.9 31.2 12.1 31.2 12.3S31.1 12.7 31 12.8L26.1 17.7C25.5 18.4 24.7 18.7 23.8 18.7M19.7 2.6L15.4 6.9C14.7 7.6 14.7 8.9 15.4 9.6L22.5 16.7C23.2 17.4 24.5 17.4 25.2 16.7L29.5 12.4z"
                                        data-fill-palette-color="accent"></path>
                                    </g>
                                  </g>
                                </svg></g>
                            </svg></g>
                          <g id="text-0">
                            <path
                              d="M12.195 98.607v0l4.192 1.411 2.199-6.529c0.099-0.295 0.222-0.502 0.367-0.621v0c0.332-0.238 0.707-0.479 1.124-0.723 0.424-0.242 0.916-0.478 1.477-0.709v0c0.199-0.073 0.349-0.092 0.45-0.058v0c0.107 0.036 0.208 0.14 0.304 0.312v0c0.3 0.521 0.546 1.006 0.737 1.454 0.191 0.449 0.344 0.868 0.458 1.256v0c0.035 0.208 0.007 0.446-0.084 0.717v0l-2.198 6.529 9.261 3.119c0.364 0.123 0.593 0.284 0.687 0.483 0.085 0.204 0.067 0.487-0.056 0.852v0l-1.32 3.919c-0.125 0.371-0.282 0.608-0.47 0.713-0.197 0.108-0.478 0.101-0.843-0.022v0l-20.483-6.898c-1.225-0.412-2.156-0.855-2.794-1.329-0.64-0.467-1.007-1.08-1.101-1.839-0.092-0.765 0.075-1.779 0.5-3.042v0l2.922-8.677c0.099-0.295 0.225-0.501 0.376-0.618v0c0.326-0.24 0.7-0.481 1.125-0.723 0.418-0.244 0.907-0.481 1.467-0.712v0c0.199-0.073 0.349-0.092 0.45-0.059v0c0.107 0.036 0.208 0.14 0.304 0.312v0c0.3 0.521 0.546 1.006 0.737 1.455 0.191 0.449 0.344 0.868 0.459 1.256v0c0.041 0.21 0.016 0.45-0.075 0.72v0l-1.745 5.182c-0.273 0.81-0.289 1.42-0.05 1.829 0.246 0.412 0.787 0.758 1.622 1.04z"
                              fill="#000000" data-fill-palette-color="primary"></path>
                            <path
                              d="M47.311 71.705l-0.77 4.395c-0.056 0.291-0.116 0.484-0.18 0.576v0c-0.068 0.098-0.175 0.173-0.323 0.224v0c-0.338 0.129-0.95 0.122-1.834-0.019-0.88-0.148-2.013-0.699-3.4-1.654v0l-18.51-12.753c-0.257-0.177-0.42-0.366-0.491-0.567v0c-0.276-0.85-0.458-1.941-0.546-3.273v0c0.002-0.224 0.042-0.394 0.121-0.509v0c0.094-0.136 0.238-0.234 0.432-0.294v0c0.671-0.214 1.266-0.371 1.786-0.472 0.529-0.102 1.018-0.164 1.467-0.184v0c0.217-0.011 0.454 0.071 0.71 0.248v0l17.537 12.081c0.704 0.485 1.341 0.839 1.911 1.063 0.579 0.222 1.074 0.357 1.483 0.406v0c0.473 0.061 0.676 0.304 0.607 0.732z"
                              fill="#000000" data-fill-palette-color="primary"></path>
                            <path
                              d="M68.468 53.444v0c-3.594 2.882-7.136 2.146-10.628-2.208v0l-6.185-7.682c-0.195-0.243-0.295-0.469-0.3-0.676v0c-0.02-0.893 0.12-1.991 0.418-3.292v0c0.062-0.22 0.147-0.373 0.256-0.46v0c0.129-0.104 0.297-0.154 0.504-0.15v0c0.7-0.017 1.315 0.003 1.846 0.062 0.532 0.049 1.018 0.131 1.459 0.245v0c0.207 0.046 0.408 0.191 0.603 0.434v0l5.833 7.275c1.754 2.187 3.497 2.586 5.23 1.197v0c0.858-0.688 1.306-1.54 1.341-2.554 0.036-1.014-0.358-2.036-1.183-3.065v0l-5.785-7.213c-0.195-0.243-0.295-0.469-0.3-0.677v0c-0.02-0.893 0.12-1.991 0.419-3.292v0c0.062-0.22 0.147-0.373 0.255-0.459v0c0.129-0.104 0.297-0.154 0.505-0.15v0c0.7-0.017 1.315 0.003 1.846 0.061 0.532 0.049 1.018 0.131 1.458 0.246v0c0.207 0.046 0.408 0.191 0.603 0.434v0l10.542 13.146c0.153 0.191 0.219 0.411 0.196 0.658-0.021 0.238-0.133 0.438-0.334 0.6v0l-2.273 1.822c-0.16 0.129-0.324 0.221-0.49 0.279-0.161 0.053-0.351 0.06-0.568 0.022v0l-1.909-0.457-0.101 0.081c0.021 0.365-0.016 0.833-0.112 1.402-0.091 0.575-0.369 1.23-0.831 1.966-0.463 0.736-1.235 1.538-2.315 2.405z"
                              fill="#000000" data-fill-palette-color="primary"></path>
                            <path
                              d="M102.005 27.14v0c-1.041 1.197-1.662 2.32-1.864 3.369-0.199 1.056-0.079 2.227 0.361 3.512v0c0.088 0.257 0.11 0.446 0.067 0.565-0.035 0.124-0.174 0.228-0.419 0.312v0l-4.28 1.464c-0.539 0.184-0.928-0.071-1.166-0.768v0c-0.571-1.668-0.741-3.273-0.512-4.816 0.229-1.542 1.027-3.122 2.393-4.737v0c-1.545-0.277-2.898-0.907-4.061-1.89-1.163-0.982-1.981-2.166-2.454-3.552v0l-0.1-0.292c-0.101-0.295-0.118-0.541-0.053-0.738v0c0.283-0.853 0.785-1.841 1.508-2.964v0c0.135-0.179 0.268-0.291 0.4-0.336v0c0.157-0.054 0.331-0.047 0.522 0.021v0c0.666 0.227 1.238 0.456 1.716 0.684 0.486 0.233 0.917 0.478 1.291 0.735v0c0.179 0.114 0.319 0.318 0.42 0.613v0l0.1 0.292c0.598 1.75 2.078 2.757 4.437 3.021v0c0.752-0.832 1.207-1.653 1.364-2.463 0.153-0.802 0.085-1.626-0.204-2.472v0l-0.1-0.292c-0.101-0.295-0.115-0.542-0.043-0.741v0c0.258-0.845 0.741-1.826 1.451-2.945v0c0.116-0.173 0.243-0.283 0.381-0.33v0c0.157-0.054 0.325-0.044 0.503 0.028v0c0.654 0.232 1.216 0.463 1.688 0.694 0.48 0.235 0.901 0.483 1.263 0.745v0c0.173 0.116 0.31 0.321 0.411 0.616v0l0.099 0.291c0.519 1.518 0.632 2.943 0.338 4.277-0.294 1.333-0.863 2.547-1.707 3.641v0c1.809 0.334 3.302 1.084 4.479 2.251 1.183 1.165 2.08 2.64 2.691 4.427v0c0.142 0.414 0.187 0.71 0.136 0.889-0.053 0.172-0.243 0.314-0.569 0.426v0l-4.374 1.496c-0.426 0.146-0.74-0.076-0.942-0.666v0c-0.272-0.796-0.593-1.478-0.962-2.045-0.365-0.576-0.873-1.057-1.524-1.444-0.657-0.385-1.552-0.677-2.685-0.878z"
                              fill="#000000" data-fill-palette-color="primary"></path>
                            <path
                              d="M143.65 18.549v0c-0.338 0-0.623-0.087-0.855-0.26v0c-0.245-0.166-0.536-0.405-0.873-0.717-0.338-0.312-0.712-0.694-1.122-1.144v0c-0.159-0.179-0.238-0.342-0.238-0.488v0c0-0.139 0.08-0.301 0.239-0.487v0c0.803-0.9 1.533-1.565 2.19-1.995v0c0.159-0.099 0.381-0.149 0.666-0.148v0c0.875 0.001 1.634-0.329 2.278-0.991 0.644-0.662 0.953-1.729 0.929-3.2v0c-0.011-1.591-0.401-2.705-1.169-3.342-0.768-0.637-1.821-0.957-3.16-0.959v0l-0.924-0.001c-0.855-0.001-1.438 0.18-1.751 0.544-0.312 0.364-0.469 0.984-0.47 1.859v0l-0.026 19.595c-0.001 0.384-0.08 0.653-0.24 0.805-0.166 0.146-0.441 0.218-0.825 0.217v0l-4.136-0.005c-0.391-0.001-0.666-0.074-0.825-0.22-0.165-0.153-0.248-0.421-0.247-0.806v0l0.029-21.613c0.002-1.292 0.126-2.316 0.372-3.071 0.24-0.755 0.704-1.298 1.394-1.629 0.696-0.33 1.711-0.495 3.043-0.493v0l4.613 0.006c3.718 0.005 6.468 0.738 8.248 2.198 1.788 1.454 2.679 3.682 2.676 6.685v0c-0.003 2.253-0.476 4.092-1.419 5.516-0.936 1.424-2.154 2.469-3.653 3.136-1.492 0.674-3.073 1.01-4.744 1.008z"
                              fill="#000000" data-fill-palette-color="primary"></path>
                            <path
                              d="M183.788 17.386l-0.453 1.369 0.066 0.021c1.772-2.255 3.857-2.986 6.254-2.193v0c0.302 0.1 0.549 0.199 0.74 0.297 0.185 0.096 0.311 0.169 0.378 0.219v0c0.162 0.123 0.206 0.295 0.133 0.516v0l-1.47 4.445c-0.125 0.378-0.379 0.409-0.764 0.093v0c-0.13-0.113-0.322-0.25-0.576-0.41-0.256-0.154-0.629-0.313-1.121-0.475v0c-1.265-0.418-2.406-0.283-3.423 0.407-1.017 0.69-1.79 1.834-2.318 3.432v0l-2.66 8.042c-0.121 0.365-0.284 0.594-0.489 0.686-0.197 0.088-0.481 0.071-0.852-0.051v0l-3.794-1.255c-0.371-0.123-0.61-0.278-0.715-0.467-0.103-0.195-0.094-0.474 0.026-0.839v0l5.111-15.452c0.098-0.296 0.233-0.502 0.404-0.62v0c0.372-0.261 0.799-0.507 1.281-0.739 0.477-0.24 1.047-0.474 1.709-0.702v0c0.126-0.042 0.243-0.059 0.352-0.051 0.103 0.006 0.192 0.022 0.267 0.047v0c0.17 0.056 0.322 0.176 0.457 0.36v0c0.755 1.136 1.241 2.051 1.459 2.745v0c0.063 0.188 0.063 0.38-0.002 0.575z"
                              fill="#000000" data-fill-palette-color="primary"></path>
                            <path
                              d="M208.82 51.293v0c-1.778-1.274-3.117-2.67-4.018-4.189-0.905-1.513-1.287-3.136-1.146-4.87 0.138-1.728 0.892-3.548 2.262-5.46v0c2.062-2.877 4.358-4.521 6.888-4.934 2.525-0.417 5.007 0.25 7.448 1.998v0c1.589 1.139 2.731 2.385 3.424 3.738 0.69 1.359 0.963 2.741 0.82 4.147-0.142 1.415-0.672 2.764-1.591 4.046v0c-0.896 1.25-1.842 1.893-2.838 1.929-1.002 0.032-2.117-0.392-3.345-1.272v0l-6.772-4.853c-0.69 1.145-0.882 2.255-0.576 3.33 0.302 1.081 1.062 2.057 2.279 2.93v0c0.97 0.695 1.85 1.105 2.64 1.231 0.79 0.126 1.361 0.189 1.712 0.188v0c0.309 0.001 0.583 0.096 0.824 0.284v0c0.199 0.143 0.461 0.387 0.784 0.733 0.314 0.347 0.579 0.757 0.794 1.23v0c0.167 0.324 0.164 0.607-0.01 0.849v0c-0.1 0.14-0.268 0.317-0.503 0.532v0c-0.131 0.126-0.335 0.302-0.611 0.529-0.272 0.221-0.552 0.412-0.839 0.573v0c-0.15 0.072-0.328 0.111-0.536 0.117v0c-0.318 0-0.799-0.046-1.441-0.14-0.639-0.099-1.429-0.344-2.373-0.734-0.945-0.4-2.037-1.044-3.276-1.932zM212.242 38.309v0l5.148 3.689c0.539 0.386 0.984 0.334 1.335-0.156v0c0.537-0.749 0.754-1.547 0.652-2.394-0.106-0.842-0.627-1.599-1.565-2.272v0c-1.018-0.73-2.001-0.94-2.947-0.632-0.947 0.308-1.821 0.897-2.623 1.765z"
                              fill="#000000" data-fill-palette-color="primary"></path>
                            <path
                              d="M232.301 75.006v0c-0.82-1.117-1.405-2.11-1.755-2.979-0.354-0.875-0.56-1.632-0.619-2.271-0.058-0.64-0.07-1.165-0.035-1.577v0c0.039-0.316 0.221-0.483 0.546-0.499v0l3.535-0.141c0.505-0.017 0.719 0.229 0.64 0.738v0c-0.07 0.52-0.056 1.139 0.043 1.856 0.108 0.718 0.444 1.462 1.009 2.232v0c0.506 0.689 1.039 1.169 1.6 1.44 0.561 0.271 1.065 0.242 1.514-0.088v0c0.31-0.227 0.491-0.513 0.544-0.855 0.053-0.343-0.001-0.842-0.162-1.497-0.156-0.65-0.401-1.543-0.734-2.68v0c-0.492-1.678-0.647-3.105-0.467-4.282 0.18-1.177 0.923-2.243 2.226-3.201v0c1.197-0.878 2.415-1.263 3.655-1.153 1.234 0.113 2.408 0.559 3.522 1.337 1.108 0.782 2.076 1.736 2.903 2.863v0c1.051 1.432 1.655 2.534 1.811 3.308 0.166 0.775 0.234 1.3 0.207 1.575v0c-0.02 0.253-0.094 0.476-0.224 0.669v0c-0.308 0.432-0.769 0.93-1.381 1.495v0c-0.359 0.329-0.688 0.418-0.987 0.269v0c-0.169-0.073-0.392-0.214-0.668-0.423-0.285-0.21-0.56-0.427-0.824-0.653-0.259-0.229-0.437-0.411-0.536-0.544v0c-0.031-0.043-0.051-0.098-0.06-0.166-0.014-0.064-0.009-0.191 0.016-0.381v0c0.036-0.232 0.02-0.578-0.047-1.039-0.058-0.459-0.298-0.977-0.721-1.554v0c-0.412-0.561-0.85-0.967-1.314-1.219-0.465-0.242-0.928-0.195-1.388 0.143v0c-0.497 0.365-0.692 0.882-0.586 1.553 0.106 0.671 0.371 1.709 0.795 3.116v0c0.339 1.1 0.568 2.107 0.688 3.022 0.115 0.919 0.014 1.766-0.304 2.542-0.314 0.782-0.963 1.533-1.946 2.255v0c-1.272 0.933-2.552 1.339-3.843 1.217-1.285-0.126-2.497-0.601-3.636-1.426-1.145-0.82-2.151-1.821-3.017-3.002z"
                              fill="#000000" data-fill-palette-color="primary"></path>
                            <path
                              d="M247.972 104.829v0c-0.459-1.307-0.73-2.427-0.812-3.36-0.084-0.94-0.061-1.724 0.069-2.353 0.13-0.629 0.272-1.135 0.426-1.52v0c0.129-0.291 0.352-0.398 0.667-0.318v0l3.423 0.894c0.488 0.131 0.621 0.428 0.398 0.893v0c-0.219 0.477-0.385 1.073-0.5 1.788-0.106 0.719-0.001 1.528 0.316 2.428v0c0.283 0.807 0.654 1.421 1.111 1.844 0.457 0.422 0.949 0.541 1.474 0.357v0c0.363-0.127 0.619-0.347 0.77-0.66 0.15-0.313 0.244-0.806 0.281-1.48 0.04-0.667 0.066-1.593 0.078-2.777v0c0.018-1.748 0.285-3.159 0.8-4.233 0.515-1.073 1.536-1.878 3.061-2.413v0c1.401-0.492 2.678-0.505 3.833-0.04 1.148 0.468 2.141 1.236 2.98 2.304 0.833 1.07 1.481 2.265 1.944 3.585v0c0.589 1.676 0.845 2.906 0.769 3.692-0.067 0.789-0.154 1.312-0.261 1.567v0c-0.093 0.236-0.229 0.428-0.409 0.575v0c-0.42 0.323-1.006 0.666-1.756 1.028v0c-0.439 0.21-0.78 0.2-1.023-0.03v0c-0.14-0.119-0.312-0.319-0.516-0.599-0.212-0.284-0.412-0.572-0.598-0.864-0.181-0.295-0.299-0.52-0.354-0.677v0c-0.018-0.05-0.021-0.109-0.009-0.176 0.005-0.065 0.047-0.185 0.126-0.361v0c0.101-0.211 0.187-0.547 0.258-1.007 0.079-0.456-0.001-1.022-0.238-1.697v0c-0.231-0.657-0.531-1.173-0.902-1.548-0.375-0.367-0.831-0.456-1.369-0.267v0c-0.582 0.204-0.919 0.643-1.014 1.314-0.094 0.672-0.143 1.743-0.146 3.213v0c0.004 1.151-0.07 2.181-0.221 3.091-0.157 0.912-0.501 1.693-1.031 2.344-0.528 0.656-1.368 1.186-2.519 1.59v0c-1.488 0.523-2.832 0.538-4.03 0.046-1.192-0.494-2.213-1.302-3.063-2.422-0.856-1.118-1.527-2.368-2.013-3.751z"
                              fill="#000000" data-fill-palette-color="primary"></path>
                            <path
                              d="M32.709 181.975v0l-4.588 1.579 2.455 7.135c0.112 0.326 0.143 0.589 0.092 0.788v0c-0.126 0.429-0.29 0.888-0.493 1.379-0.209 0.492-0.477 1.026-0.805 1.602v0c-0.128 0.198-0.245 0.316-0.352 0.352v0c-0.119 0.041-0.278 0.018-0.475-0.068v0c-0.606-0.254-1.143-0.511-1.611-0.77-0.462-0.262-0.874-0.523-1.237-0.784v0c-0.171-0.151-0.309-0.377-0.412-0.678v0l-2.454-7.136-10.125 3.484c-0.401 0.138-0.706 0.148-0.915 0.03-0.215-0.115-0.391-0.374-0.529-0.774v0l-1.475-4.287c-0.138-0.401-0.158-0.713-0.059-0.936 0.092-0.221 0.339-0.4 0.74-0.539v0l22.393-7.704c1.341-0.461 2.45-0.703 3.326-0.723 0.87-0.019 1.597 0.271 2.18 0.869 0.593 0.602 1.126 1.593 1.601 2.971v0l3.266 9.495c0.112 0.326 0.142 0.586 0.089 0.779v0c-0.124 0.435-0.287 0.898-0.489 1.388-0.209 0.492-0.477 1.026-0.805 1.602v0c-0.124 0.19-0.242 0.304-0.356 0.343v0c-0.119 0.041-0.273 0.02-0.462-0.062v0c-0.612-0.252-1.152-0.508-1.621-0.767-0.462-0.262-0.875-0.526-1.24-0.793v0c-0.171-0.151-0.308-0.374-0.408-0.669v0l-1.951-5.669c-0.306-0.89-0.702-1.43-1.188-1.62-0.486-0.19-1.183-0.129-2.092 0.183z"
                              fill="#000000" data-fill-palette-color="primary"></path>
                            <path
                              d="M32.752 225.903l-4.218-2.498c-0.273-0.174-0.446-0.312-0.517-0.416v0c-0.072-0.104-0.108-0.244-0.109-0.42v0c0.001-0.395 0.247-1.017 0.74-1.866 0.493-0.849 1.497-1.797 3.013-2.845v0l20.263-14.012c0.278-0.192 0.533-0.284 0.764-0.275v0c0.983 0.046 2.175 0.285 3.578 0.717v0c0.228 0.084 0.385 0.189 0.472 0.315v0c0.106 0.153 0.15 0.339 0.133 0.56v0c-0.04 0.769-0.111 1.442-0.211 2.02-0.101 0.577-0.229 1.101-0.387 1.573v0c-0.073 0.22-0.249 0.426-0.527 0.618v0l-19.2 13.277c-0.769 0.532-1.378 1.049-1.827 1.553-0.458 0.502-0.791 0.954-0.997 1.355v0c-0.248 0.469-0.571 0.584-0.97 0.344z"
                              fill="#000000" data-fill-palette-color="primary"></path>
                            <path
                              d="M54.349 250.367v0c-3.934-3.167-3.984-7.133-0.148-11.898v0l6.761-8.431c0.212-0.263 0.43-0.424 0.655-0.481v0c0.955-0.235 2.166-0.345 3.634-0.329v0c0.242 0.016 0.423 0.072 0.542 0.168v0c0.145 0.116 0.24 0.283 0.287 0.499v0c0.18 0.749 0.304 1.414 0.371 1.996 0.068 0.582 0.093 1.121 0.076 1.618v0c-0.008 0.232-0.118 0.479-0.33 0.743v0l-6.402 7.954c-1.932 2.401-1.949 4.366-0.048 5.895v0c0.94 0.756 1.957 1.031 3.051 0.823 1.096-0.199 2.097-0.861 3.003-1.987v0l6.352-7.891c0.212-0.263 0.43-0.424 0.655-0.481v0c0.955-0.235 2.164-0.347 3.626-0.336v0c0.242 0.016 0.425 0.074 0.55 0.174v0c0.145 0.116 0.238 0.281 0.279 0.493v0c0.18 0.749 0.304 1.414 0.372 1.996 0.068 0.582 0.093 1.121 0.075 1.619v0c-0.003 0.236-0.11 0.486-0.322 0.749v0l-11.582 14.389c-0.166 0.207-0.382 0.326-0.647 0.36-0.265 0.033-0.509-0.039-0.73-0.218v0l-2.486-2.001c-0.176-0.141-0.312-0.294-0.41-0.458-0.097-0.155-0.149-0.354-0.157-0.598v0l0.036-2.153-0.116-0.094c-0.379 0.112-0.888 0.183-1.526 0.215-0.633 0.035-1.398-0.108-2.295-0.431-0.902-0.317-1.944-0.952-3.126-1.904z"
                              fill="#000000" data-fill-palette-color="primary"></path>
                            <path
                              d="M99.821 266.229v0c-1.698 0.337-2.989 0.893-3.871 1.67-0.882 0.777-1.565 1.871-2.047 3.282v0c-0.097 0.282-0.204 0.463-0.322 0.541-0.118 0.079-0.309 0.073-0.572-0.017v0l-4.694-1.606c-0.589-0.202-0.753-0.685-0.491-1.45v0c0.624-1.825 1.555-3.328 2.792-4.508 1.231-1.183 2.981-2.017 5.248-2.502v0c-1.153-1.277-1.903-2.731-2.248-4.363-0.352-1.633-0.268-3.209 0.251-4.726v0l0.11-0.32c0.112-0.326 0.266-0.553 0.464-0.682v0c0.809-0.543 1.906-1.057 3.291-1.543v0c0.235-0.074 0.425-0.086 0.57-0.036v0c0.176 0.06 0.321 0.187 0.437 0.381v0c0.427 0.636 0.771 1.216 1.033 1.74 0.262 0.524 0.47 1.022 0.623 1.495v0c0.072 0.221 0.052 0.494-0.06 0.82v0l-0.109 0.32c-0.656 1.919-0.048 3.784 1.827 5.595v0c1.209-0.217 2.153-0.622 2.832-1.216 0.673-0.596 1.168-1.355 1.483-2.278v0l0.11-0.319c0.112-0.326 0.266-0.553 0.464-0.682v0c0.784-0.551 1.859-1.073 3.226-1.566v0c0.223-0.078 0.409-0.091 0.56-0.039v0c0.176 0.06 0.312 0.184 0.409 0.371v0c0.414 0.632 0.749 1.209 1.005 1.731 0.256 0.522 0.454 1.017 0.595 1.485v0c0.072 0.221 0.052 0.494-0.06 0.82v0l-0.11 0.32c-0.569 1.662-1.427 2.972-2.574 3.932-1.152 0.951-2.463 1.62-3.933 2.006v0c1.348 1.505 2.142 3.157 2.382 4.955 0.237 1.804 0.021 3.685-0.648 5.641v0c-0.157 0.458-0.314 0.744-0.472 0.858-0.16 0.12-0.422 0.118-0.786-0.006v0l-4.798-1.641c-0.464-0.159-0.586-0.561-0.364-1.207v0c0.298-0.872 0.48-1.678 0.544-2.42 0.065-0.741-0.055-1.497-0.36-2.267-0.308-0.778-0.887-1.635-1.737-2.569z"
                              fill="#000000" data-fill-palette-color="primary"></path>
                            <path
                              d="M144.007 269.795v0c-0.371 0.001-0.686-0.092-0.945-0.277v0c-0.265-0.185-0.584-0.447-0.955-0.784-0.372-0.344-0.783-0.761-1.235-1.251v0c-0.173-0.199-0.259-0.377-0.259-0.537v0c0-0.152 0.086-0.328 0.257-0.527v0c0.88-0.995 1.681-1.729 2.403-2.201v0c0.166-0.113 0.407-0.17 0.726-0.17v0c0.961-0.001 1.792-0.364 2.493-1.087 0.702-0.723 1.038-1.894 1.009-3.511v0c-0.016-1.75-0.448-2.969-1.297-3.656-0.843-0.695-1.996-1.041-3.462-1.039v0l-1.014 0.001c-0.941 0.001-1.58 0.201-1.917 0.599-0.337 0.398-0.505 1.078-0.505 2.039v0l0.032 21.474c0.001 0.424-0.088 0.716-0.268 0.876-0.179 0.166-0.48 0.249-0.904 0.249v0l-4.533 0.007c-0.424 0.001-0.726-0.082-0.905-0.247-0.179-0.159-0.269-0.45-0.27-0.875v0l-0.034-23.681c-0.002-1.418 0.129-2.545 0.392-3.381 0.264-0.829 0.773-1.423 1.529-1.781 0.762-0.366 1.872-0.549 3.33-0.552v0l5.06-0.007c4.076-0.006 7.093 0.788 9.05 2.383 1.958 1.594 2.939 4.035 2.944 7.322v0c0.004 2.466-0.507 4.481-1.533 6.047-1.025 1.559-2.356 2.711-3.991 3.456-1.636 0.738-3.369 1.108-5.198 1.111z"
                              fill="#000000" data-fill-palette-color="primary"></path>
                            <path
                              d="M178.97 254.31l0.492 1.492 0.085-0.028c0.083-3.133 1.44-5.134 4.072-6.002v0c0.334-0.11 0.613-0.185 0.837-0.223 0.233-0.035 0.391-0.052 0.475-0.052v0c0.231 0.001 0.385 0.121 0.464 0.36v0l1.607 4.871c0.137 0.415-0.068 0.609-0.615 0.58v0c-0.184-0.009-0.44-0.001-0.767 0.023-0.327 0.024-0.761 0.125-1.303 0.304v0c-1.391 0.459-2.309 1.327-2.753 2.604-0.446 1.271-0.381 2.781 0.196 4.531v0l2.909 8.818c0.133 0.403 0.139 0.708 0.019 0.915-0.112 0.211-0.369 0.383-0.772 0.516v0l-4.164 1.373c-0.409 0.135-0.721 0.151-0.937 0.048-0.22-0.095-0.396-0.344-0.529-0.747v0l-5.586-16.938c-0.106-0.321-0.122-0.591-0.048-0.811v0c0.159-0.471 0.372-0.967 0.64-1.489 0.274-0.523 0.627-1.104 1.059-1.741v0c0.08-0.117 0.169-0.206 0.268-0.266 0.099-0.06 0.189-0.104 0.271-0.132v0c0.189-0.062 0.399-0.058 0.632 0.012v0c1.403 0.507 2.43 0.999 3.082 1.475v0c0.171 0.118 0.294 0.287 0.366 0.507z"
                              fill="#000000" data-fill-palette-color="primary"></path>
                            <path
                              d="M221.627 253.527v0c-1.949 1.387-3.873 2.28-5.769 2.678-1.891 0.394-3.709 0.211-5.454-0.548-1.745-0.76-3.366-2.193-4.865-4.299v0c-2.244-3.154-3.131-6.114-2.659-8.881 0.462-2.769 2.035-5.108 4.718-7.019v0c1.744-1.241 3.444-1.979 5.099-2.213 1.646-0.236 3.175-0.031 4.587 0.616 1.416 0.652 2.625 1.683 3.629 3.092v0c0.98 1.377 1.308 2.587 0.985 3.631-0.314 1.045-1.149 2.05-2.504 3.014v0l-7.436 5.292c0.937 1.123 2.02 1.719 3.249 1.788 1.22 0.068 2.499-0.375 3.838-1.329v0c1.064-0.757 1.804-1.524 2.219-2.299 0.42-0.77 0.689-1.341 0.809-1.71v0c0.106-0.32 0.301-0.572 0.584-0.757v0c0.221-0.158 0.57-0.336 1.046-0.537 0.472-0.206 0.988-0.337 1.549-0.395v0c0.399-0.056 0.693 0.048 0.881 0.313v0c0.108 0.151 0.232 0.388 0.372 0.711v0c0.083 0.185 0.191 0.458 0.326 0.818 0.138 0.365 0.236 0.727 0.295 1.083v0c0.027 0.176 0.006 0.374-0.065 0.595v0c-0.117 0.327-0.338 0.806-0.662 1.436-0.326 0.639-0.861 1.373-1.605 2.203-0.745 0.839-1.801 1.745-3.167 2.717zM209.395 245.357v0l5.654-4.024c0.589-0.419 0.689-0.901 0.301-1.446v0c-0.584-0.821-1.333-1.325-2.248-1.512-0.913-0.197-1.882 0.07-2.908 0.8v0c-1.123 0.799-1.691 1.744-1.704 2.836-0.022 1.089 0.28 2.205 0.905 3.346z"
                              fill="#000000" data-fill-palette-color="primary"></path>
                            <path
                              d="M249.896 225.277v0c-0.904 1.219-1.757 2.154-2.561 2.804-0.804 0.65-1.529 1.111-2.175 1.383-0.652 0.267-1.198 0.448-1.64 0.542v0c-0.346 0.066-0.579-0.07-0.7-0.408v0l-1.283-3.661c-0.182-0.523 0.005-0.825 0.561-0.908v0c0.564-0.093 1.207-0.31 1.929-0.649 0.722-0.339 1.395-0.93 2.018-1.771v0c0.556-0.751 0.886-1.463 0.99-2.137 0.098-0.678-0.098-1.198-0.587-1.562v0c-0.341-0.253-0.701-0.351-1.082-0.294-0.371 0.055-0.874 0.272-1.509 0.651-0.635 0.379-1.492 0.928-2.57 1.647v0c-1.601 1.058-3.045 1.682-4.334 1.874-1.289 0.192-2.644-0.24-4.065-1.294v0c-1.31-0.971-2.109-2.124-2.398-3.46-0.283-1.332-0.194-2.705 0.269-4.119 0.457-1.418 1.142-2.742 2.053-3.973v0c1.156-1.56 2.116-2.549 2.879-2.965 0.757-0.421 1.283-0.662 1.576-0.725v0c0.275-0.06 0.535-0.053 0.778 0.02v0c0.558 0.182 1.231 0.504 2.02 0.965v0c0.452 0.269 0.651 0.586 0.595 0.949v0c-0.023 0.198-0.097 0.476-0.223 0.836-0.13 0.365-0.27 0.72-0.418 1.064-0.157 0.346-0.291 0.593-0.401 0.742v0c-0.036 0.048-0.084 0.086-0.147 0.114-0.066 0.034-0.203 0.068-0.411 0.104v0c-0.254 0.043-0.614 0.172-1.079 0.388-0.456 0.215-0.917 0.636-1.383 1.265v0c-0.454 0.612-0.736 1.199-0.847 1.76-0.105 0.565 0.092 1.033 0.593 1.405v0c0.548 0.406 1.154 0.447 1.816 0.121 0.666-0.331 1.67-0.945 3.009-1.841v0c1.037-0.708 2.016-1.273 2.94-1.695 0.918-0.425 1.837-0.598 2.759-0.516 0.918 0.086 1.912 0.526 2.982 1.319v0c1.39 1.03 2.23 2.239 2.522 3.626 0.286 1.384 0.183 2.809-0.31 4.275-0.489 1.461-1.211 2.836-2.166 4.124z"
                              fill="#000000" data-fill-palette-color="primary"></path>
                            <path
                              d="M268.64 190.147v0c-0.514 1.428-1.062 2.569-1.645 3.423-0.582 0.854-1.144 1.504-1.685 1.95-0.547 0.444-1.019 0.774-1.414 0.992v0c-0.312 0.162-0.575 0.1-0.788-0.189v0l-2.283-3.136c-0.325-0.448-0.233-0.792 0.276-1.031v0c0.513-0.252 1.067-0.644 1.66-1.178 0.593-0.533 1.068-1.292 1.422-2.277v0c0.317-0.879 0.427-1.657 0.333-2.332-0.101-0.677-0.439-1.12-1.013-1.326v0c-0.399-0.144-0.773-0.134-1.12 0.03-0.339 0.16-0.759 0.512-1.258 1.058-0.499 0.546-1.161 1.318-1.986 2.317v0c-1.228 1.474-2.432 2.488-3.61 3.043-1.179 0.555-2.601 0.532-4.266-0.067v0c-1.534-0.552-2.632-1.427-3.293-2.623-0.655-1.194-0.965-2.535-0.929-4.022 0.029-1.49 0.303-2.955 0.822-4.395v0c0.658-1.827 1.292-3.05 1.902-3.669 0.604-0.621 1.038-1.004 1.301-1.148v0c0.246-0.137 0.497-0.205 0.75-0.206v0c0.587 0.014 1.324 0.128 2.212 0.342v0c0.511 0.127 0.792 0.373 0.844 0.738v0c0.035 0.196 0.044 0.484 0.026 0.865-0.02 0.387-0.051 0.767-0.093 1.139-0.051 0.376-0.108 0.652-0.17 0.827v0c-0.02 0.056-0.056 0.107-0.108 0.151-0.054 0.051-0.175 0.124-0.364 0.218v0c-0.231 0.114-0.539 0.341-0.922 0.682-0.375 0.337-0.695 0.873-0.959 1.609v0c-0.258 0.717-0.36 1.36-0.304 1.93 0.062 0.572 0.386 0.963 0.972 1.175v0c0.642 0.231 1.234 0.095 1.774-0.408 0.543-0.509 1.327-1.386 2.352-2.629v0c0.789-0.977 1.564-1.8 2.326-2.47 0.756-0.672 1.587-1.102 2.493-1.29 0.904-0.182 1.982-0.047 3.236 0.405v0c1.628 0.586 2.781 1.501 3.46 2.746 0.673 1.242 0.984 2.637 0.934 4.183-0.047 1.54-0.343 3.064-0.885 4.573z"
                              fill="#000000" data-fill-palette-color="primary"></path>
                            <path
                              d="M3.077 143.306c0-6.437 5.218-11.655 11.655-11.655 6.437 0 11.655 5.218 11.655 11.655 0 6.437-5.218 11.655-11.655 11.655-6.437 0-11.655-5.218-11.655-11.655z"
                              fill="#000000" data-fill-palette-color="primary"></path>
                            <path
                              d="M253.613 143.306c0-6.437 5.218-11.655 11.655-11.655 6.437 0 11.655 5.218 11.655 11.655 0 6.437-5.218 11.655-11.655 11.655-6.437 0-11.655-5.218-11.655-11.655z"
                              fill="#000000" data-fill-palette-color="primary"></path>
                          </g>
                          <g id="text-1"></g>
                        </svg></g>
                    </svg></g>
                </svg></g>
            </svg></g>
          <defs></defs>
        </svg>
        <rect width="280" height="280" fill="none" stroke="none" visibility="hidden"></rect>
      </g>
    </svg></g>
</svg>